<?xml version="1.0" encoding="UTF-8"?>
<svg width="54px" height="54px" viewBox="0 0 54 54" version="1.1" xmlns="http://www.w3.org/2000/svg" xmlns:xlink="http://www.w3.org/1999/xlink">
    <!-- Generator: Sketch 55.2 (78181) - https://sketchapp.com -->
    <title>ey-fulllogo</title>
    <desc>Created with Sketch.</desc>
    <defs>
        <rect id="path-1" x="0" y="0" width="70" height="11"></rect>
        <rect id="path-3" x="0" y="0" width="70" height="11"></rect>
    </defs>
    <g id="Symbols" stroke="none" stroke-width="1" fill="none" fill-rule="evenodd">
        <g id="navbar-outside" transform="translate(-130.000000, -11.000000)">
            <g id="ey-fulllogo">
                <g transform="translate(130.000000, 11.000000)">
                    <polygon id="Path" fill="#F8E71C" fill-rule="nonzero" points="51 0 0 19 0 19 51 9.84455959"></polygon>
                    <polygon id="Path" fill="#2e2e36" fill-rule="nonzero" points="32.7635659 27 28.5968992 35.2046332 24.3333333 27 16 27 24.8178295 42.1544402 24.8178295 52 32.2790698 52 32.2790698 42.1544402 41 27"></polygon>
                    <polygon id="Path" fill="#2e2e36" fill-rule="nonzero" points="7.84951456 42.1544402 17.3300971 42.1544402 17.3300971 36.9420849 7.84951456 36.9420849 7.84951456 32.7915058 18.3495146 32.7915058 14.8834951 27 0 27 0 52 21 52 21 46.3050193 7.84951456 46.3050193"></polygon>
                    
                </g>
            </g>
        </g>
    </g>
</svg>